<svg width="45" height="45" viewBox="0 0 45 45" fill="none" xmlns="http://www.w3.org/2000/svg">
<circle cx="22.5" cy="22.5" r="21.5" fill="#F3DB5B" stroke="#C76236" stroke-width="2"/>
<path d="M39.9884 22.8814C39.9884 32.7229 32.1476 40.6864 22.4935 40.6864C12.8394 40.6864 4.99872 32.7229 4.99872 22.8814C4.99872 13.0398 12.8394 5.07628 22.4935 5.07628C32.1476 5.07628 39.9884 13.0398 39.9884 22.8814Z" fill="#8A1EBD" stroke="#C76236"/>
<path d="M22.3634 17.1619H20.0834L20.3714 16.0579C21.2514 16.0579 22.1634 15.9379 23.1074 15.6979C24.0514 15.4579 25.1714 14.9539 26.4674 14.1859L22.6514 32.1379H19.1954L22.3634 17.1619Z" fill="white"/>
<path d="M22.3634 17.1619L23.3418 17.3689L23.5971 16.1619H22.3634V17.1619ZM20.0834 17.1619L19.1158 16.9095L18.7891 18.1619H20.0834V17.1619ZM20.3714 16.0579V15.0579H19.5988L19.4038 15.8055L20.3714 16.0579ZM23.1074 15.6979L22.861 14.7288L22.861 14.7288L23.1074 15.6979ZM26.4674 14.1859L27.4456 14.3938L27.9198 12.1629L25.9576 13.3256L26.4674 14.1859ZM22.6514 32.1379V33.1379H23.4612L23.6296 32.3458L22.6514 32.1379ZM19.1954 32.1379L18.2171 31.931L17.9617 33.1379H19.1954V32.1379ZM22.3634 16.1619H20.0834V18.1619H22.3634V16.1619ZM21.051 17.4143L21.339 16.3103L19.4038 15.8055L19.1158 16.9095L21.051 17.4143ZM20.3714 17.0579C21.3428 17.0579 22.3377 16.9254 23.3538 16.6671L22.861 14.7288C21.9891 14.9504 21.16 15.0579 20.3714 15.0579V17.0579ZM23.3538 16.6671C24.4264 16.3944 25.6387 15.8394 26.9772 15.0462L25.9576 13.3256C24.7041 14.0684 23.6765 14.5214 22.861 14.7288L23.3538 16.6671ZM25.4893 13.978L21.6733 31.93L23.6296 32.3458L27.4456 14.3938L25.4893 13.978ZM22.6514 31.1379H19.1954V33.1379H22.6514V31.1379ZM20.1738 32.3449L23.3418 17.3689L21.3851 16.955L18.2171 31.931L20.1738 32.3449Z" fill="#C76236"/>
</svg>
