<svg width="45" height="45" viewBox="0 0 45 45" fill="none" xmlns="http://www.w3.org/2000/svg">
<circle cx="22.5" cy="22.5" r="21.5" fill="#F3DB5B" stroke="#C76236" stroke-width="2"/>
<path d="M39.9884 22.8814C39.9884 32.7229 32.1476 40.6864 22.4935 40.6864C12.8394 40.6864 4.99872 32.7229 4.99872 22.8814C4.99872 13.0398 12.8394 5.07628 22.4935 5.07628C32.1476 5.07628 39.9884 13.0398 39.9884 22.8814Z" fill="#8A1EBD" stroke="#C76236"/>
<rect x="24" y="10.1724" width="8" height="8.13793" rx="2" fill="#C76236"/>
<rect x="24.25" y="9.40517" width="7.5" height="7.63793" rx="1.75" fill="#F3DB5B" stroke="#C76236" stroke-width="0.5"/>
<rect x="16" y="10.1724" width="8" height="8.13793" rx="2" fill="#C76236"/>
<rect x="16.25" y="9.40517" width="7.5" height="7.63793" rx="1.75" fill="#F3DB5B" stroke="#C76236" stroke-width="0.5"/>
<rect x="16" y="18.3103" width="8" height="8.13793" rx="2" fill="#C76236"/>
<rect x="16.25" y="17.5431" width="7.5" height="7.63793" rx="1.75" fill="#F3DB5B" stroke="#C76236" stroke-width="0.5"/>
<rect x="16" y="26.4483" width="8" height="8.13793" rx="2" fill="#C76236"/>
<rect x="16.25" y="25.681" width="7.5" height="7.63793" rx="1.75" fill="#F3DB5B" stroke="#C76236" stroke-width="0.5"/>
</svg>
